<svg width="512" height="512" viewBox="0 0 512 512" fill="none" xmlns="http://www.w3.org/2000/svg">
<rect width="512" height="512" rx="120" fill="#CA3500"/>
<path d="M432.66 237.686H303.54L318.743 216.763C328.414 203.454 344.011 195.508 360.461 195.508H432.66C443.016 195.508 451.412 187.112 451.412 176.756C451.412 166.401 443.02 158 432.66 158H360.461C332.043 158 305.106 171.726 288.403 194.716L257.186 237.686H172.479C144.061 237.686 117.124 251.412 100.421 274.402L63.5832 325.097C57.4936 333.474 59.3547 345.203 67.732 351.288C71.0604 353.707 74.9186 354.87 78.7393 354.87C84.5383 354.87 90.2576 352.189 93.9235 347.14L130.757 296.444C140.428 283.135 156.025 275.189 172.475 275.189H229.935L193.674 325.097C187.584 333.474 189.445 345.203 197.822 351.288C201.151 353.707 205.009 354.87 208.83 354.87C214.629 354.87 220.348 352.189 224.014 347.14L260.847 296.444C270.518 283.135 286.115 275.189 302.565 275.189H432.655C443.011 275.189 451.407 266.793 451.407 256.437C451.407 246.082 443.011 237.686 432.655 237.686H432.66Z" fill="white"/>
</svg>
