<svg width="2017" height="420" viewBox="0 0 2017 420" fill="none" xmlns="http://www.w3.org/2000/svg">
<path d="M1424.99 4.51883C1407.48 -1.17117 1389.04 -1.49117 1371.66 3.57883C1352.68 9.11883 1336.33 20.7488 1324.37 37.2188L1107.47 335.759C1104.64 339.659 1100.88 340.879 1096.29 339.389C1091.71 337.899 1089.38 334.699 1089.38 329.879V90.1188C1089.38 69.7688 1082.99 50.7488 1070.89 35.1088C1059.81 20.7888 1044.7 10.2188 1027.19 4.52883C1009.68 -1.16117 991.239 -1.48117 973.859 3.58883C954.879 9.12883 938.529 20.7588 926.569 37.2288L709.669 335.769C706.839 339.669 703.069 340.889 698.489 339.399C693.899 337.909 691.579 334.709 691.579 329.889V210.009C691.579 187.919 673.669 170.009 651.579 170.009C629.489 170.009 611.579 187.919 611.579 210.009V329.889C611.579 350.239 617.969 369.259 630.069 384.899C641.149 399.219 656.259 409.789 673.769 415.479C683.039 418.489 692.569 419.999 702.069 419.999C710.509 419.999 718.919 418.809 727.099 416.419C746.079 410.879 762.429 399.249 774.389 382.779L991.289 84.2388C994.119 80.3388 997.879 79.1188 1002.47 80.6088C1007.05 82.0988 1009.38 85.2988 1009.38 90.1188V329.879C1009.38 350.229 1015.77 369.249 1027.87 384.889C1038.95 399.209 1054.06 409.779 1071.57 415.469C1089.08 421.159 1107.52 421.489 1124.9 416.409C1143.88 410.869 1160.23 399.239 1172.19 382.769L1389.09 84.2288C1391.92 80.3288 1395.69 79.1088 1400.27 80.5988C1404.85 82.0888 1407.18 85.2888 1407.18 90.1088V379.959C1407.18 402.049 1425.09 419.959 1447.18 419.959C1469.27 419.959 1487.18 402.049 1487.18 379.959V90.1188C1487.18 69.7688 1480.79 50.7488 1468.69 35.1088C1457.61 20.7888 1442.5 10.2188 1424.99 4.52883V4.51883ZM363.419 80.0188H517.429C539.519 80.0188 557.429 62.1088 557.429 40.0188C557.429 17.9288 539.519 0.018832 517.429 0.018832H363.419C302.799 0.018832 245.339 29.2988 209.709 78.3388L7.63908 356.459C-5.34092 374.329 -1.38092 399.349 16.4891 412.329C23.5891 417.489 31.8191 419.969 39.9691 419.969C52.3391 419.969 64.5391 414.249 72.3591 403.479L150.949 295.299C171.579 266.929 204.839 249.989 239.919 249.989H517.419C539.509 249.989 557.419 232.079 557.419 209.989C557.419 187.899 539.509 169.989 517.419 169.989H241.999L274.429 125.359C295.059 96.9688 328.329 80.0188 363.419 80.0188ZM1826.52 0.018832H1731.33C1626.56 0.018832 1541.33 85.2488 1541.33 190.019V229.969C1541.33 334.739 1626.56 419.969 1731.33 419.969H1826.52C1931.29 419.969 2016.52 334.739 2016.52 229.969V190.019C2016.52 85.2488 1931.28 0.018832 1826.52 0.018832ZM1936.52 229.969C1936.52 290.619 1887.17 339.969 1826.52 339.969H1731.33C1670.68 339.969 1621.33 290.619 1621.33 229.969V190.019C1621.33 129.369 1670.68 80.0188 1731.33 80.0188H1826.52C1887.17 80.0188 1936.52 129.369 1936.52 190.019V229.969ZM651.579 80.0188C673.669 80.0188 691.579 62.1088 691.579 40.0188C691.579 17.9288 673.669 0.018832 651.579 0.018832C629.489 0.018832 611.579 17.9288 611.579 40.0188C611.579 62.1088 629.489 80.0188 651.579 80.0188Z" fill="black"/>
</svg>
